<svg id="Calque_1" data-name="Calque 1" xmlns="http://www.w3.org/2000/svg" viewBox="0 0 2254.19 2251.77"><defs><style>.cls-1{fill:#949494;}.cls-2{fill:#393939;}.cls-3{fill:#fff;}.cls-4{fill:#fffdfd;}.cls-5{fill:#060606;}.cls-6{fill:#fcfcfc;}.cls-7{fill:#de0932;}</style></defs><path class="cls-1" d="M1264.71,2619.49h35.49q4.5,1.19,3.55,3.55c-.82,1.78-1.53,2.6-2.36,2.6h-35.85C1265.18,2623.51,1265,2621.5,1264.71,2619.49Z" transform="translate(-256.1 -373.88)"/><path class="cls-2" d="M1301.86,2625.53c0-2-.83-4.15-1.18-6.16,12.89,0,26.5-5.68,37.38,6.16Z" transform="translate(-256.1 -373.88)"/><path class="cls-2" d="M1425.26,2625.53c10.88-11.84,24.61-6.51,37.39-6.16,1.53,1.66,1.89,3.2,1.06,4.38s-1.54,1.78-2.13,1.78Z" transform="translate(-256.1 -373.88)"/><path class="cls-1" d="M1461.58,2625.53l1.07-6.16h35.49l-.71,6Z" transform="translate(-256.1 -373.88)"/><path class="cls-3" d="M1685.43,696.81c-1.42,11.24-.71,22.24,11.12,28a32,32,0,0,0,34.19-3.08c4.26-3.2,11.36-10.18,2-12.9-31.94-9.23-9-24.13-2.6-32.89,26.74-37.15,55.72-72.76,83.53-109.32,7.1-9.46,12.66-20.23,17.86-28.63-1.18-9.7-1.65-18.1-9.46-20.47-10.89-3.07-17.63,3.43-22.72,12.78-25.79,46.85-61.64,86.37-93.58,128.72A81.84,81.84,0,0,0,1685.43,696.81Z" transform="translate(-256.1 -373.88)"/><path class="cls-4" d="M1611.84,673.5c-6.51,23.31,6,30.4,25.67,33,10.89-2.84,29-11.12,17.63-18.93-22.6-15.86-5.56-24.26,1.06-34,12.66-19.4,27.45-36.44,40.82-54.9a20.11,20.11,0,0,0,3.91-23.66c-6-9.34-17.28-8.28-26.27-8.28-12.3-.24-10.17,9.82-10.17,18.34.59,17.51-13.73,27.21-22.36,39.87C1631.48,640.84,1617.28,654.09,1611.84,673.5Z" transform="translate(-256.1 -373.88)"/><path class="cls-3" d="M885.05,2331.4c23-8.63,35.49-28,54.07-41.17,8.4-5.8,21.65-14.91,11.83-25.67s-18.46,3.66-26.86,9.11c-14.79,9.46-24.84,32.18-48.51,16.68l-22.48-16.21-.4.44c-.05-.17,0-.27-.07-.44a329.44,329.44,0,0,0,26.27-25c15.85-17.87,7.8-36.8-15.86-41.53-4.49-1.07-9.46-2.13-11.83,3.07-1.06,2.49-.35,8.52,1.42,9.47,23.07,13,4.14,20.47-4.26,26.62-30,21.77-56.43,48.51-102.46,62.47,47.21,14.55,69.69-13.37,97.49-24.61l22.84,13.84,0-.05c9.1,8.48,7.75,14.93-2.66,21.94a185.59,185.59,0,0,0-27.56,23.66c-6.16,6.27-2.25,13.61,1.65,19.88a20,20,0,0,0,18.93,8c5,0,11.24-2.13,8.05-7.81C851.45,2340.63,875.11,2335.19,885.05,2331.4Z" transform="translate(-256.1 -373.88)"/><path class="cls-3" d="M2170.62,1889.39c-2.24,3.79,1.19,11.12,2.13,16.68,4.86,28.63,31.36,39,48.39,57.38,10.65,11.36,23.9,25.2,40,12.54,13.85-10.53,13.85-26.85,2-46-6.5,43.42-21.76,23.78-37.26,9.23s-22.84-30.64-11-50c-13.6-11.36-16,13.73-26.73,1.54C2182.46,1884.42,2175.59,1881.34,2170.62,1889.39Z" transform="translate(-256.1 -373.88)"/><path class="cls-3" d="M1038.85,2406.77a42.71,42.71,0,0,1,49.58-20.47c9.58-13.13-19.17-12.66-6.16-26.38a11,11,0,0,0,1.13-1.13,10.53,10.53,0,0,0-1.13-14.85c-7-5.68-12.42,1.9-18.81,4.14-28.16,10.3-33.84,39.17-49.93,59.16-9,11.12-17.74,26.74-5.32,38.81s30.41,10.88,47.92-6.27C1017.32,2442.26,1023.83,2428.18,1038.85,2406.77Z" transform="translate(-256.1 -373.88)"/><path class="cls-3" d="M1240,2345.13c-8.28-3.79-13.84,3.9-16.09,10.41-12.77,36.67-35.61,68.15-52.05,102.81a33.1,33.1,0,0,0-4.14,27.69c4.49,11.59,13.6,12.18,23.66,8.75,6-2,12.78-8,7.21-12.78-20.82-17.51.71-29.34,6.28-41.17,12.42-27.09,28.39-52.65,42.59-78.44C1244.36,2355,1243.53,2346.43,1240,2345.13Z" transform="translate(-256.1 -373.88)"/><path class="cls-3" d="M1793.21,2323.12c4-5.44,12-15.85,6.27-15.26-18.93,2.13-12.9-24.85-27.92-21.53-9.94,2.24-6.27,14.43-9.94,21.41-14.67,28.4,6.15,51.82,10.77,77.14,5.79,31.59,20.11,33,48.86,5.8a43,43,0,0,1-28-67.56Z" transform="translate(-256.1 -373.88)"/><path class="cls-3" d="M2042.26,2124.47c-27.45-5.56-15.38,45.55-48,33.72-1.06,4.38-4,11.72-2.72,12.54,24.61,15.5,28.16,43.54,40,66.38,2.84,5.91,8.52,9.82,14.67,5.91a14.32,14.32,0,0,0,4.62-11.83c-6.87-31.94-32.19-63.65,2-95.36C2048.53,2131.1,2045.92,2125.54,2042.26,2124.47Z" transform="translate(-256.1 -373.88)"/><path class="cls-3" d="M645,2074.07c-15.5,0-20.82-3.43-7.21-18.22a87.27,87.27,0,0,0-7.93-14.67,7.25,7.25,0,0,0-2-2,7.1,7.1,0,0,0-9.84,2c-13.49,20.47-36.92,19.76-56.32,27.69-7.69,3.07-22.6,1.18-18.81,16s15,5.68,23.66,5c23.66-1.66,49.46-18.58,71,3.67,6.86,7.1,11.24,12.3,19.76,6.5a15.36,15.36,0,0,0,5.56-11.83l0-.22A16,16,0,0,0,645,2074.07Z" transform="translate(-256.1 -373.88)"/><path class="cls-3" d="M2013.51,2257.34c-35.38-6.63-23.19-39.4-33.84-59.16-2.72-5-1.18-13.37-10.06-12.54s-10.41,7.69-10.41,15.86c1.78,25.2,3.31,50.4,4.85,75.72a8.7,8.7,0,0,1,1.68,4l-1.68-4c-2.36,7.69-4.73,24.84-14.08,3.9-6.74-15.14-9.11-32.18-14.43-48.15-3-8.88-9.7-14.44-19.29-8.29-5.44,3.44-15.49,9.59-7.45,15.86,18.81,14.67,14.2,37.39,22.36,55.49,4.62,10.41,7.81,19.64,21.77,18.69s18.93-8.16,18.1-21.06h0c.14.07.21.17.36.24,6.74-6.39,0-34.19,23.66-14.08,5.92,5.44,15.85-2.13,18.46-6.39S2018.71,2258.29,2013.51,2257.34Z" transform="translate(-256.1 -373.88)"/><path class="cls-3" d="M2180.09,1972.21c-7.34-6.27-13.84-10.18-22.72-6.27a22.24,22.24,0,0,0-11.83,20.7,121.34,121.34,0,0,0,5.45,27.8c-9.71,2.25-18.82-14.67-29.11-1.3-3.43,4.74-7.57,12.54-1.06,15.86,25.43,12.3,32.89,38,47.32,58.32,4.38,6.75,10.53,11.95,17.63,6.75s4.26-14.08,0-19.52c-14.43-18.81-14.43-43.07-26.27-63.06l-.33.92c-.08-.3-.17-.63-.26-.92,3.55-5.92-4-14.67,6-19.88a398.06,398.06,0,0,0,34.19,45.08,18.56,18.56,0,0,0,3.29,2.7,18.35,18.35,0,0,0,25.34-5.54,21.77,21.77,0,0,0,1.42-19.52C2193.34,2022.49,2197,1985.22,2180.09,1972.21Z" transform="translate(-256.1 -373.88)"/><path class="cls-5" d="M1457.42,2372.4a64.48,64.48,0,0,1,5.7-7.75,13.38,13.38,0,0,0-5.7,7.75Z" transform="translate(-256.1 -373.88)"/><path class="cls-3" d="M1519.32,2442a210.81,210.81,0,0,0,23.66-18.33c13.37-14.2,27.09-28.64,16.56-50.88s-31.23-25.32-52-22.24a279,279,0,0,0-44.37,14.08c-1.06,6.74-7.22,13.84,0,20s10.29,0,15.62-2.84c18.45-11.83,42.35-34.07,57.61-6.86s-11.83,43.19-34.19,55.61c-15-15.38,14.2-36.21-7.92-48.16a6,6,0,0,0-4.85-.63,62.32,62.32,0,0,0-4.92,4.46c-2,2.82-3.75,6.17-6.21,8-.36,0-.65-.06-1-.07a446.91,446.91,0,0,1-31.4,117.9c37.15-10.41,33-44.95,49-64.24,25.08,15.5,31.47,64.24,75.72,36.8C1543,2482.13,1536.83,2456.22,1519.32,2442Z" transform="translate(-256.1 -373.88)"/><path class="cls-3" d="M1722.81,2394.11c-10.64-7.93-22.59-13.84-27.68-27.1,6.27-3.31,10.77-14.67,20.7-6.15,5.45,4.85,9.23,16.68,18.82,5.8a15.54,15.54,0,0,0,2.6-13.25,19.64,19.64,0,0,0-20.11-11.83,32.88,32.88,0,0,0-29.94,15.5h0c-30.17,40.34,15.38,45.55,30.17,65.07-1.89,7.1-2.6,15.5-12.78,10-6.74-3.43-12.42-14-20.35-2.13a10.92,10.92,0,0,0,0,13.14,19.53,19.53,0,0,0,22,8,30.15,30.15,0,0,0,23-15l-.12-.15C1744.87,2419.58,1738.15,2405.9,1722.81,2394.11Z" transform="translate(-256.1 -373.88)"/><path class="cls-3" d="M1715.72,548.44a21.64,21.64,0,0,0,22.59-17.75c.83-18.1-8-23.3-19.87-23.89-14.08-.71-23.31,6.27-22.36,20.94C1696.79,538.74,1702.23,549.15,1715.72,548.44Z" transform="translate(-256.1 -373.88)"/><path class="cls-3" d="M1024.66,2339.57c4.73-14.79,17-33.13,4.85-39.28-18.7-9.47-40.58,2-60.82,10.88C989.16,2316.61,1016.14,2305.61,1024.66,2339.57Z" transform="translate(-256.1 -373.88)"/><path class="cls-3" d="M694.92,2168.13c-5.68-1.54-13.84,3.67-9,10.3a77.37,77.37,0,0,0,39.87,32.89c5,1.77,8.05-3.08,8.05-10.06C721.66,2190,713.61,2172.63,694.92,2168.13Z" transform="translate(-256.1 -373.88)"/><path class="cls-3" d="M1300.8,2454.33c47.32,9.58,47.32,9.58,62.82-10.06C1343.15,2444.86,1324.46,2436.46,1300.8,2454.33Z" transform="translate(-256.1 -373.88)"/><path class="cls-3" d="M2496.76,1326.84c-95.57-614.4-671.12-1035-1285.53-939.42C704.86,465.27,306.74,882.2,262,1383a116.1,116.1,0,0,0-2.25,34.43c-1.78,12.9,3.9,26.5-3.67,38.93v87.08c7.57,12.42,1.89,26,3.67,38.92A116.1,116.1,0,0,0,262,1616.8c46.38,519.62,483.18,956.43,1002.69,1002.69a117.27,117.27,0,0,0,34.9,2.37c12.9,1.65,27-3.91,38.81,3.67h87.19c12.31-7.69,26-2,38.93-3.67a116.13,116.13,0,0,0,34.43-2.37c26.38-3.43,52.88-5.91,79-10.53C2182.48,2503.38,2591.08,1933.18,2496.76,1326.84ZM1380.42,2589.2C775.25,2589.2,292,2101.4,292,1490.44,292,892.73,783.3,410.37,1391.66,410.61c597.36,0,1079.24,491.7,1079,1100.3C2470.43,2103.65,1979.55,2589.2,1380.42,2589.2Z" transform="translate(-256.1 -373.88)"/><path class="cls-3" d="M1018.74,665.22c1.66,22.71,1.78,45.66,3.19,68.38.6,9.82,2.61,19.4,16.21,19.17s15.27-9.47,15.27-19.64a219.19,219.19,0,0,1,0-39.52c5.91-29.1-4.5-66,39.63-77.85,10.06-2.72,9-18.93,0-27.92a17.73,17.73,0,0,0-28.39,1.18,253.81,253.81,0,0,0-21.18,38.34c-6-21.18-17.28-29.23-34.9-18.34s-.36,18.93,3.9,28.39A79.56,79.56,0,0,1,1018.74,665.22Z" transform="translate(-256.1 -373.88)"/><path class="cls-3" d="M1791.67,840.91c-9.82-5.92-22.24-8.52-27.92-20.35,68-24.25,111.45-79.62,161.73-126,6.51-6,12.54-13.37,5-21.77a16.8,16.8,0,0,0-23.66-1.07c-18.1,11.83-35.14,25.44-54.31,35.5-21.65,11.59-42.47,30.17-82.81,19.28a258.51,258.51,0,0,0,25.55-16.09c18.69-15.62,36.56-31.47,54.19-48a20.82,20.82,0,0,0,6.15-26c-3.79-7.57-11-8.76-18-10.3-15.74-3.54-11.6,9.47-15.74,17a119.07,119.07,0,0,1-23.66,26c-14.08,13.13-29.58,25-42.71,39.16a26,26,0,0,0,23.66,44.84c14.2-1.42,28-4.73,47.33-8.16-43,53.95-83.77,65.66-138.67,43.77a776.19,776.19,0,0,0-415.63-49.57c-425,67.79-710,437.4-669.76,866.28,42.12,442.72,460.23,767.61,900.83,699.93A791.48,791.48,0,0,0,2070,1925.1C2292.56,1548.84,2167.93,1063.43,1791.67,840.91ZM1384.56,2277c-415.87,0-751.16-339.79-750.93-760.51,0-415.63,340.27-750.45,761.46-750.1,413.5.36,749.27,340.5,749.15,758.74C2144.24,1941.56,1804.92,2277.22,1384.56,2277Z" transform="translate(-256.1 -373.88)"/><path class="cls-6" d="M1140.6,707.81c30.17,13.49,43.66-12.31,56.44-33.84,29.22,27,70,19.88,85.18-15.62a270,270,0,0,1,80-106.48c-2.6,39.16-19.76,63.54-28.16,90.63-3.78,12.3-10.41,28.63,6.51,33.84s16.8-12.78,21.18-23a278.32,278.32,0,0,1,68.14-102.69c4.5,25.44-9.58,39.75-14.43,56.67a91.48,91.48,0,0,0-4.61,49.69,21.17,21.17,0,0,0,21.77,15.62A29.23,29.23,0,0,0,1460.28,659a20.62,20.62,0,0,0,0-12.9c-50.16-7.57-10.06-33.6-7.93-48.51,3.32-23.54,26.62-51.58-1.3-67.91s-40.82,14.79-55.72,32.65c-8.28-1.41-8.28-1.41-12.43-21.77-40.46-27.44-49.21,16.69-71,31.71a17.85,17.85,0,0,1-1.19-6.86c3.55-16.68,7.46-32.42-19-32.06s-12.78,16.21-12.78,29.1c-.83,31.71-14.55,60.46-27.1,89.09a16.68,16.68,0,0,1-20,11.48,17.16,17.16,0,0,1-8.64-18.58c2-19.16,5.09-38.09,6.63-57.26,1.77-21.53,28.63-58.21-31.47-32.3-52.77,22.84-78.44,34-84,87.43C1111.62,668.06,1113,696,1140.6,707.81Zm24.49-123.4c4.38-6.27,10.65-14.32,20.35-10.41a21.07,21.07,0,0,1,12.31,23.78c-4.85,27.21-7.58,55.13-23.67,78.68-9.34,13.72-19.4,15-24.72-3.2A99.13,99.13,0,0,1,1165.09,584.41Z" transform="translate(-256.1 -373.88)"/><path class="cls-3" d="M850.86,657.17A105.74,105.74,0,0,1,890,607.24c11.83-7.69,23.66-14.31,36.56-6.74a35.5,35.5,0,0,1,16.68,34,82.84,82.84,0,0,1-46.38,71.82V660.13c0-10.65,1.54-23.66-14.32-23.66s-17.27,12.77-17.39,25.2c-.11,11.58-.52,24.46-.87,36.8.08.51.08,1,.16,1.53,6.15,23.43,9.94,47.44,18,70,6.62,18.81,14.55,40.82,40,40.82,33.13-.48,52.06-23.9,65.79-49.93,10.53-19.28,16.2-45.67-4.86-59.16-25.43-16.44-20.23-33.12-13.6-54.89a56.45,56.45,0,0,0-18.69-65.31c-21.18-16.56-43.66-9.11-64.6,1.89a135.84,135.84,0,0,0-54.19,47.33C817.85,653.5,825.65,661.9,850.86,657.17Zm117,84.24c-6,20.59-10.42,46.38-36.8,46-23.66,0-26.26-26.74-27.09-43.89-1.19-22,17.63-33.25,37.62-34.55S965.62,725.55,967.87,741.41Z" transform="translate(-256.1 -373.88)"/><path class="cls-3" d="M1528.66,682.25a94.64,94.64,0,0,0,59.16-32.3c23.66-24,34.07-55.37,23.66-86.25s-40.22-17-63.89-17c11.13-25.32,21.77-48.16,31.12-71.7a18.71,18.71,0,0,0,1.37-3.11,18.92,18.92,0,0,0-11.9-24c-12.78-3.67-14.67,9.23-18.46,17.63-12.54,28.75-24.72,57.61-37.62,86.13a427.86,427.86,0,0,0-32.3,73C1470.22,663,1489.62,685.8,1528.66,682.25Zm-22.59-49.92a160,160,0,0,1,53.36-62.59c5.67-4.14,11.83-8.4,19.52-2.25a15.38,15.38,0,0,1,4.14,16.09c-7.22,29.58-16.57,58.09-46.38,73.59-9.58,5-19.64,11.83-29.7,2S1502.28,640.73,1506.07,632.33Z" transform="translate(-256.1 -373.88)"/><path class="cls-3" d="M539,2040a34,34,0,0,1,22.59-9.58c15.86-2,32.18-4.74,47.33-7,4-16.21-10.53-20.12-13.84-31-13.26-34.19-64.25-47-93.94-25.08-18.93,14.67-22.84,31.59-1.07,47.32,6.74,5,20.23,2.72,14.91,18.46-4.5,13.6,3.9,21.65,15.73,23.66C548.33,2060.11,534.25,2045.09,539,2040Zm-30.88-41c0-17.75,21.77-18.7,37-19.29s35.49-1.18,34.07,15.85c-1.18,20.47-25.44,8.76-38.1,15.86C529.28,2006.52,507.87,2014.44,508.11,1999Z" transform="translate(-256.1 -373.88)"/><path class="cls-3" d="M1921.93,2326.79c-40.7-8.4-23.66-42-31.11-64.48-2-6.63-4.26-10.06-11.83-8.76a70.16,70.16,0,0,0-54.43,71,53.27,53.27,0,0,0,8.88,35.85c10.64,16.8,26.74,24.61,41.17,8,10.77-11.71,14.91-25.79,35.49-21.77C1916.14,2348,1928.32,2328.09,1921.93,2326.79Zm-57.73,26.62c-18.34,0-18-22.13-18.46-37s-2.48-34.43,15.74-33.72,11.24,22.48,14.55,35.25C1872.48,2330.69,1882.54,2353.41,1864.2,2353.41Z" transform="translate(-256.1 -373.88)"/><path class="cls-3" d="M2114.66,2062.48c-4.73-6.51-10.76-21.65-16.56-11.83-11.71,20.47-46,28.39-34.19,59.15a63.53,63.53,0,0,0,12.66,46.15c7.92,11.12,17.51,21.06,32.53,19.4a23,23,0,0,0,3.31-.41,23.66,23.66,0,0,0,18.7-27.75c-1.3-16.56,10.17-12.3,18.69-13.72a14.08,14.08,0,0,0,12.66-15.15,20.43,20.43,0,0,0-5.09-11.83C2120.11,2113.83,2127.32,2078.45,2114.66,2062.48Zm.71,88.38c-12.54,6.39-18.93-6.27-24.72-15.15a58.38,58.38,0,0,1-11.83-40.81,14.91,14.91,0,0,1,11.83-13.73c18,8.28,20.35,27,25.79,43.66C2119.4,2133.82,2125.9,2145.42,2115.37,2150.86Z" transform="translate(-256.1 -373.88)"/><path class="cls-3" d="M505,1937c14.32-15.26,23.54-12.54,38-5.2a36.91,36.91,0,0,0,43.42-6.16c12.18-11,10.17-25.2,6.27-39.87a114.34,114.34,0,0,0-27.09-45.9,14.9,14.9,0,0,0-19.05-5.09c-12.66,6.62.37,13.81,0,20.89a50.17,50.17,0,0,1,11.4,6c12.77,11.83,30.64,25.79,15.85,44s-32.66,7.69-47.33-3.55a224.26,224.26,0,0,1-18-17c7.22-12.66,18.34-5.2,27.8-5.2,23.35,0,23-9.35,10.3-23.8v.13c-31-1.65-62.12-4.49-92,7.34-11.48,4.61-22.48,11.36-21.41,25.32.69,11.15,2.51,24,18.58,24.52.6-11.62-7.53-25.21,10.4-32.45,18.46-7.45,29.58,0,39.87,13.25.81,49.14-30.43,18.17-48.61,20.07C463.73,1941.47,488.65,1954.27,505,1937Z" transform="translate(-256.1 -373.88)"/><path class="cls-3" d="M965.38,2326.91c-31.11-1.3-67,27.56-67.79,53.47s19,30.17,37,34.43c31.24.48,68.74-30.52,67.08-56.31C1000.88,2336.14,985.73,2327.85,965.38,2326.91ZM926,2399.79c-7.57-1.54-9.11-6.27-8.4-13,1.66-15.73,37.51-45.19,53.24-43.77,6.63,0,11.84,1.77,10.42,9.46C981.24,2368.43,940.42,2402.27,926,2399.79Z" transform="translate(-256.1 -373.88)"/><path class="cls-3" d="M1128.89,2387.6a74.17,74.17,0,0,0-52.18,41.29c-7.92,17-7.92,32.89,9.35,44.72q.26.19.51.36a38.57,38.57,0,0,0,53.68-9.7c-14.79-6.51-37.74,13.6-46.5-18.34,18.34-4.14,34.07,1.77,51.23-6s24.37-20.35,19.4-37.38S1143.68,2384.05,1128.89,2387.6Zm17,23.9a37.52,37.52,0,0,1-38.46,16.8c8.4-13.49,15.15-28.87,34.08-25.67C1143.56,2402.63,1146.87,2410,1145.93,2411.5Z" transform="translate(-256.1 -373.88)"/><path class="cls-3" d="M1614.09,2452.91c-9.94-12.66,17.74-11.83,21.88-23.66,18.7-10.42,28.75-25.68,17-46.38-9.66-17-24.14-15.38-38.13-4a6.75,6.75,0,0,0-.68-.21,66.73,66.73,0,0,0-29.69,64.83c1.3,21.3,12.42,35.14,34.19,33.13,19.52-1.54,40.23-7.1,40.23-35.49C1641.06,2443.68,1629,2472.67,1614.09,2452.91Zm-3.67-23.55c-6.86-4.14-3.91-12.54-1.18-18.69,3.54-8.52,8.51-16.33,12.89-24.49,27,7.34,9.94,22.6,6.27,35.49C1622.37,2424.63,1617.28,2433.51,1610.42,2429.36Z" transform="translate(-256.1 -373.88)"/><path class="cls-7" d="M393.11,1648.39c-2.84-8.05-6-16.68-16.8-16.57-.5,0-1,0-1.5.08a15,15,0,0,0-13.41,16.49v.24a16.09,16.09,0,0,0,16.21,16C388.49,1665.54,391.21,1656.91,393.11,1648.39Z" transform="translate(-256.1 -373.88)"/><path class="cls-7" d="M2353.3,1715.35c-10.41-1.89-14.91,5-16.33,14.2s1.89,16.21,12.42,17.27l.81.12a15,15,0,0,0,16.7-13.13C2366.19,1724.7,2363.71,1717.25,2353.3,1715.35Z" transform="translate(-256.1 -373.88)"/><path class="cls-7" d="M2332.48,1769.78a16.09,16.09,0,0,0-13.73,17.74,13.24,13.24,0,0,0,.21,3.33,13.72,13.72,0,0,0,16,11c9.11-.71,14.2-7.22,13.37-18.34C2346.56,1775.93,2342.3,1768.59,2332.48,1769.78Z" transform="translate(-256.1 -373.88)"/><path class="cls-7" d="M402,1701.27c-2-5.56-4.85-13.48-15.73-11.47a14,14,0,0,0-2.88.38,14.43,14.43,0,0,0-10.73,17.36q.08.49.18,1a15.38,15.38,0,0,0,18.28,11.79C399.85,1719.73,402.81,1713.1,402,1701.27Z" transform="translate(-256.1 -373.88)"/><path class="cls-7" d="M2363.71,1659.15c-10.65,1.42-11.83,10.42-11.83,18.93a12.24,12.24,0,0,0,.22,2,12.43,12.43,0,0,0,14.57,9.83c10.29-.71,15.14-6.63,15.14-17.28C2378.74,1665.07,2374.36,1657.73,2363.71,1659.15Z" transform="translate(-256.1 -373.88)"/><path class="cls-7" d="M404.11,1746.71a13.72,13.72,0,0,0-16.8,13.6c-.71,9.94,5.8,14.55,15.74,16.33.33,0,.66,0,1,0a11.84,11.84,0,0,0,11.9-11.77C416.89,1756.17,414.52,1747.89,404.11,1746.71Z" transform="translate(-256.1 -373.88)"/><path class="cls-7" d="M1818.65,1731.44c-15.74,0-24.49,6.75-24.49,23.66a24,24,0,0,0,0,3.06,23.67,23.67,0,0,0,25.09,22.15c16.44.35,20.82-13.14,20.82-27.69C1840.89,1737.48,1834.38,1731.44,1818.65,1731.44Z" transform="translate(-256.1 -373.88)"/><path class="cls-7" d="M1434.25,1377.57c-19.4,4.14-20.11,4.14-22.48-7.69,66.61-68.5,129.32-140.08,169-228.46,14.55-32.42,24.85-66,16-101.51a57.22,57.22,0,0,0-76.9-44,199.11,199.11,0,0,0-71.58,40.93c-75.72,62.35-123.87,144.11-165.63,230.24-48.51,99.5-78.8,206.81-112,312.46a20.12,20.12,0,0,0-5.56,8.4,16.1,16.1,0,0,1-2-16.68c2.84-30,4-60.34,8.76-90,25.79-164.1,68.26-323.7,160-465.44,4.49-6.86,13.25-13.84,3.78-21.77s-18.46-.59-25.44,6a266.56,266.56,0,0,0-52.17,73.59,1223.47,1223.47,0,0,0-137.24,539.26c-1.19,42.24-9.23,65.31-53.24,71a119.74,119.74,0,0,0-44.73,21.18c-79.74,52.29-81.63,149.07-4.14,204.68a351.84,351.84,0,0,0,189.3,64.12c181.26,10.06,329.62-53.47,424.27-210.95C1738.91,1584.5,1621.3,1361.13,1434.25,1377.57ZM1570,1776.05c-81.52,98.31-211,158.53-355.3,158.53a338.6,338.6,0,0,1-166.34-45.9c-32.06-19.64-60.34-44.6-57.74-85.54s31.95-63.3,65.07-81c9.47-5.09,20.12-7.93,30.06-11.84,22-9.93,36.67-9.58,35.49,21.18a86.39,86.39,0,0,0,7,27.81,16.57,16.57,0,0,0,17.27,10.53c8.64,0,12.9-5.33,15-12.9a85.54,85.54,0,0,0,4.26-17.63c1.65-35.49,19.4-50.16,55.37-44.6,10.41,1.54,29,6.62,31-8.64s-17.51-17.51-27.56-16.8c-41.53,3.08-38.93-16.09-31.35-47.32,32.29-135.47,72.4-267.86,137.24-391.85,36.2-69.1,80-132.39,142.68-180.43a273.06,273.06,0,0,1,37-22.36,38.69,38.69,0,0,1,44.25,2.13c15.86,11.83,12.9,28.51,8.76,43.3a455.26,455.26,0,0,1-98.2,175.7c-39.52,45.55-82.82,88.26-124.11,132-9.94,10.53-24.49,20.94-14.91,36.56s24.61,4.38,37,3.31a210.75,210.75,0,0,0,31.83-8.52c124.34-28.75,215.33,33,235.32,158.78C1641.53,1648.51,1619.17,1716.42,1570,1776.05Z" transform="translate(-256.1 -373.88)"/></svg>