<svg id="Calque_1" data-name="Calque 1" xmlns="http://www.w3.org/2000/svg" viewBox="0 0 190.53 190.32"><defs><style>.cls-1{fill:#949494;}.cls-2{fill:#393939;}.cls-3{fill:#060606;}.cls-4{fill:#de0932;}</style></defs><path class="cls-1" d="M95.09,245.08h3q.38.1.3.3c-.07.15-.13.22-.2.22h-3C95.13,245.42,95.11,245.25,95.09,245.08Z" transform="translate(-9.84 -55.28)"/><path class="cls-2" d="M98.23,245.59a3.18,3.18,0,0,0-.1-.52c1.09,0,2.24-.48,3.16.52Z" transform="translate(-9.84 -55.28)"/><path class="cls-2" d="M108.66,245.59c.92-1,2.08-.55,3.16-.52.13.14.16.27.09.37s-.13.15-.18.15Z" transform="translate(-9.84 -55.28)"/><path class="cls-1" d="M111.73,245.59l.09-.52h3l-.06.51Z" transform="translate(-9.84 -55.28)"/><path class="cls-3" d="M130.65,82.57c-.12,1-.06,1.88.94,2.37a2.71,2.71,0,0,0,2.89-.26c.36-.27,1-.86.17-1.09-2.7-.78-.76-2-.22-2.78,2.26-3.14,4.71-6.15,7.06-9.24.6-.8,1.07-1.71,1.51-2.42-.1-.82-.14-1.53-.8-1.73-.92-.26-1.49.29-1.92,1.08-2.18,4-5.21,7.3-7.91,10.88A6.87,6.87,0,0,0,130.65,82.57Z" transform="translate(-9.84 -55.28)"/><path class="cls-3" d="M124.43,80.6c-.55,2,.51,2.57,2.17,2.79.92-.24,2.45-.94,1.49-1.6-1.91-1.34-.47-2.05.09-2.87,1.07-1.64,2.32-3.08,3.45-4.64a1.7,1.7,0,0,0,.33-2c-.51-.79-1.46-.7-2.22-.7-1,0-.86.83-.86,1.55.05,1.48-1.16,2.3-1.89,3.37C126.09,77.84,124.89,79,124.43,80.6Z" transform="translate(-9.84 -55.28)"/><path class="cls-3" d="M63,220.73c1.94-.73,3-2.37,4.57-3.48.71-.49,1.83-1.26,1-2.17s-1.56.31-2.27.77c-1.25.8-2.1,2.72-4.1,1.41l-1.9-1.37,0,0a.08.08,0,0,1,0,0,27.67,27.67,0,0,0,2.22-2.11c1.34-1.51.66-3.11-1.34-3.51-.38-.09-.8-.18-1,.26-.09.21,0,.72.12.8,2,1.1.35,1.73-.36,2.25-2.54,1.84-4.77,4.1-8.66,5.28,4,1.23,5.89-1.13,8.24-2.08L61.41,218h0c.77.71.66,1.26-.22,1.85a15.87,15.87,0,0,0-2.33,2c-.52.53-.19,1.15.14,1.68a1.69,1.69,0,0,0,1.6.68c.42,0,.95-.18.68-.66C60.16,221.51,62.16,221.05,63,220.73Z" transform="translate(-9.84 -55.28)"/><path class="cls-3" d="M171.66,183.37c-.19.32.1.94.18,1.41.41,2.42,2.65,3.3,4.09,4.85.9,1,2,2.13,3.38,1.06,1.17-.89,1.17-2.27.17-3.89-.55,3.67-1.84,2-3.15.78s-1.93-2.59-.93-4.23c-1.15-1-1.35,1.16-2.26.13C172.66,183,172.08,182.69,171.66,183.37Z" transform="translate(-9.84 -55.28)"/><path class="cls-3" d="M76,227.1a3.62,3.62,0,0,1,4.19-1.73c.81-1.11-1.62-1.07-.52-2.23l.09-.09a.89.89,0,0,0-.09-1.26c-.59-.48-1,.16-1.59.35-2.38.87-2.86,3.31-4.22,5-.76.94-1.5,2.26-.45,3.28s2.57.92,4-.53C74.18,230.1,74.73,228.91,76,227.1Z" transform="translate(-9.84 -55.28)"/><path class="cls-3" d="M93,221.89c-.7-.32-1.17.33-1.36.88-1.08,3.1-3,5.76-4.4,8.69a2.81,2.81,0,0,0-.35,2.34c.38,1,1.15,1,2,.74.51-.17,1.08-.68.61-1.08C87.74,232,89.56,231,90,230c1-2.29,2.4-4.45,3.6-6.63C93.37,222.72,93.3,222,93,221.89Z" transform="translate(-9.84 -55.28)"/><path class="cls-3" d="M139.76,220c.34-.46,1-1.34.53-1.29-1.6.18-1.09-2.1-2.36-1.82-.84.19-.53,1.22-.84,1.81-1.24,2.4.52,4.38.91,6.52.49,2.67,1.7,2.79,4.13.49a3.63,3.63,0,0,1-2.37-5.71Z" transform="translate(-9.84 -55.28)"/><path class="cls-3" d="M160.81,203.24c-2.32-.47-1.3,3.85-4.06,2.85-.09.37-.34,1-.23,1.06,2.08,1.31,2.38,3.68,3.38,5.61.24.5.72.83,1.24.5a1.21,1.21,0,0,0,.39-1c-.58-2.7-2.72-5.38.17-8.06C161.34,203.8,161.12,203.33,160.81,203.24Z" transform="translate(-9.84 -55.28)"/><path class="cls-3" d="M42.71,199c-1.31,0-1.76-.29-.61-1.54a7.42,7.42,0,0,0-.67-1.24.55.55,0,0,0-.17-.17.6.6,0,0,0-.83.17c-1.14,1.73-3.12,1.67-4.76,2.34-.65.26-1.91.1-1.59,1.35s1.27.48,2,.42c2-.14,4.18-1.57,6,.31.58.6,1,1,1.67.55a1.29,1.29,0,0,0,.47-1v0A1.36,1.36,0,0,0,42.71,199Z" transform="translate(-9.84 -55.28)"/><path class="cls-3" d="M158.38,214.47c-3-.56-2-3.33-2.86-5-.23-.42-.1-1.13-.85-1.06s-.88.65-.88,1.34c.15,2.13.28,4.26.41,6.4a.69.69,0,0,1,.14.33l-.14-.33c-.2.65-.4,2.1-1.19.33-.57-1.28-.77-2.72-1.22-4.07-.25-.75-.82-1.22-1.63-.7-.46.29-1.31.81-.63,1.34,1.59,1.24,1.2,3.16,1.89,4.69.39.88.66,1.66,1.84,1.58s1.6-.69,1.53-1.78h0l0,0c.57-.54,0-2.89,2-1.19.5.46,1.34-.18,1.56-.54S158.82,214.55,158.38,214.47Z" transform="translate(-9.84 -55.28)"/><path class="cls-3" d="M172.46,190.37c-.62-.53-1.17-.86-1.92-.53a1.89,1.89,0,0,0-1,1.75,10.4,10.4,0,0,0,.46,2.35c-.82.19-1.59-1.24-2.46-.11-.29.4-.64,1.06-.09,1.34,2.15,1,2.78,3.21,4,4.93.37.57.89,1,1.49.57s.36-1.19,0-1.65c-1.22-1.59-1.22-3.64-2.22-5.33l0,.08,0-.08c.3-.5-.34-1.24.51-1.68a33.47,33.47,0,0,0,2.89,3.81,1.55,1.55,0,0,0,2.42-.24,1.85,1.85,0,0,0,.12-1.65C173.58,194.62,173.89,191.47,172.46,190.37Z" transform="translate(-9.84 -55.28)"/><path class="cls-3" d="M111.38,224.19a6.25,6.25,0,0,1,.48-.65,1.12,1.12,0,0,0-.28.25A1.16,1.16,0,0,0,111.38,224.19Z" transform="translate(-9.84 -55.28)"/><path class="cls-3" d="M116.61,230.08a18.74,18.74,0,0,0,2-1.55c1.13-1.2,2.29-2.42,1.4-4.3s-2.64-2.14-4.4-1.88a23.35,23.35,0,0,0-3.75,1.19c-.09.57-.61,1.17,0,1.69s.87,0,1.32-.24c1.56-1,3.58-2.88,4.87-.58s-1,3.65-2.89,4.7c-1.27-1.3,1.2-3.06-.67-4.07a.48.48,0,0,0-.41,0c-.13.1-.26.22-.42.37a2.6,2.6,0,0,1-.52.68h-.09a37.39,37.39,0,0,1-2.65,10c3.14-.88,2.79-3.8,4.14-5.43,2.12,1.31,2.66,5.43,6.4,3.11C118.61,233.47,118.09,231.28,116.61,230.08Z" transform="translate(-9.84 -55.28)"/><path class="cls-3" d="M133.81,226c-.9-.67-1.91-1.17-2.34-2.29.53-.28.91-1.24,1.75-.52.46.41.78,1.41,1.59.49a1.32,1.32,0,0,0,.22-1.12,1.66,1.66,0,0,0-1.7-1,2.78,2.78,0,0,0-2.53,1.31h0c-2.55,3.41,1.3,3.85,2.55,5.5-.16.6-.22,1.31-1.08.85-.57-.29-1.05-1.18-1.72-.18a.92.92,0,0,0,0,1.11,1.66,1.66,0,0,0,1.86.68,2.57,2.57,0,0,0,1.94-1.27h0C135.67,228.18,135.11,227,133.81,226Z" transform="translate(-9.84 -55.28)"/><path class="cls-3" d="M133.21,70a1.83,1.83,0,0,0,1.91-1.5c.07-1.53-.68-2-1.68-2-1.19-.06-2,.53-1.89,1.77C131.61,69.21,132.07,70.09,133.21,70Z" transform="translate(-9.84 -55.28)"/><path class="cls-3" d="M74.8,221.42c.4-1.25,1.44-2.8.41-3.32-1.58-.8-3.43.17-5.14.92C71.8,219.48,74.08,218.55,74.8,221.42Z" transform="translate(-9.84 -55.28)"/><path class="cls-3" d="M46.93,206.93c-.48-.13-1.17.31-.76.87a6.49,6.49,0,0,0,3.37,2.78c.42.15.68-.26.68-.85C49.19,208.78,48.51,207.31,46.93,206.93Z" transform="translate(-9.84 -55.28)"/><path class="cls-3" d="M98.14,231.12c4,.81,4,.81,5.31-.85C101.72,230.32,100.14,229.61,98.14,231.12Z" transform="translate(-9.84 -55.28)"/><path class="cls-3" d="M199.23,135.82A95.16,95.16,0,0,0,90.57,56.42C47.77,63,14.12,98.24,10.34,140.57a9.83,9.83,0,0,0-.19,2.91c-.15,1.09.33,2.24-.31,3.29v7.36c.64,1.05.16,2.2.31,3.29a9.83,9.83,0,0,0,.19,2.91c3.92,43.92,40.84,80.84,84.75,84.75a10.08,10.08,0,0,0,3,.2c1.09.14,2.28-.33,3.28.31h7.37c1-.65,2.2-.17,3.29-.31a9.81,9.81,0,0,0,2.91-.2c2.23-.29,4.47-.5,6.68-.89A95.17,95.17,0,0,0,199.23,135.82Zm-94.36,106.7c-51.15,0-92-41.23-92-92.87,0-50.52,41.53-91.29,92.95-91.27,50.49,0,91.22,41.56,91.2,93C197,201.48,155.51,242.52,104.87,242.52Z" transform="translate(-9.84 -55.28)"/><path class="cls-3" d="M74.3,79.9c.14,1.92.15,3.86.27,5.78.05.83.22,1.64,1.37,1.62s1.29-.8,1.29-1.66a18.63,18.63,0,0,1,0-3.34c.5-2.46-.38-5.58,3.35-6.58.85-.23.76-1.6,0-2.36a1.7,1.7,0,0,0-.31-.29,1.51,1.51,0,0,0-2.09.39,21.32,21.32,0,0,0-1.79,3.24c-.51-1.79-1.46-2.47-3-1.55s0,1.6.33,2.4A6.54,6.54,0,0,1,74.3,79.9Z" transform="translate(-9.84 -55.28)"/><path class="cls-3" d="M139.63,94.75c-.83-.5-1.88-.72-2.36-1.72,5.75-2,9.42-6.73,13.67-10.65.55-.51,1.06-1.13.42-1.84a1.42,1.42,0,0,0-2-.09c-1.53,1-3,2.15-4.59,3-1.83,1-3.59,2.55-7,1.63a21.81,21.81,0,0,0,2.16-1.36c1.58-1.32,3.09-2.66,4.58-4.06a1.77,1.77,0,0,0,.52-2.2c-.32-.64-.93-.74-1.52-.87-1.33-.3-1,.8-1.33,1.44a10,10,0,0,1-2,2.2c-1.19,1.11-2.5,2.11-3.61,3.31a2.2,2.2,0,0,0,2,3.79c1.2-.12,2.37-.4,4-.69-3.63,4.56-7.08,5.55-11.72,3.7a65.56,65.56,0,0,0-35.13-4.19c-35.92,5.73-60,37-56.61,73.22,3.56,37.42,38.9,64.88,76.14,59.16A66.9,66.9,0,0,0,139.63,94.75ZM105.22,216.13c-35.15,0-63.49-28.72-63.47-64.28,0-35.13,28.76-63.43,64.36-63.4,35,0,63.33,28.78,63.32,64.13C169.43,187.78,140.75,216.15,105.22,216.13Z" transform="translate(-9.84 -55.28)"/><path class="cls-3" d="M84.6,83.5c2.55,1.14,3.69-1,4.77-2.86,2.47,2.28,5.92,1.68,7.2-1.32a22.84,22.84,0,0,1,6.76-9c-.22,3.31-1.67,5.37-2.38,7.66-.32,1-.88,2.42.55,2.86s1.42-1.08,1.79-1.94a23.62,23.62,0,0,1,5.76-8.68c.38,2.15-.81,3.36-1.22,4.79a7.72,7.72,0,0,0-.39,4.2,1.79,1.79,0,0,0,1.84,1.32,2.48,2.48,0,0,0,2.34-1.16,1.7,1.7,0,0,0,0-1.09c-4.24-.64-.85-2.84-.67-4.1.28-2,2.25-4.36-.11-5.74s-3.45,1.25-4.71,2.76c-.7-.12-.7-.12-1-1.84-3.42-2.32-4.16,1.41-6,2.68a1.42,1.42,0,0,1-.1-.58c.3-1.41.63-2.74-1.61-2.71s-1.08,1.37-1.08,2.46c-.07,2.68-1.23,5.11-2.29,7.53a1.41,1.41,0,0,1-1.69,1,1.45,1.45,0,0,1-.73-1.57c.17-1.62.43-3.22.56-4.84.15-1.82,2.42-4.92-2.66-2.73C85,72.5,82.85,73.44,82.38,78,82.15,80.14,82.27,82.5,84.6,83.5Zm2.07-10.43c.37-.53.9-1.21,1.72-.88a1.79,1.79,0,0,1,1,2c-.41,2.3-.64,4.66-2,6.65-.79,1.16-1.64,1.27-2.09-.27A8.38,8.38,0,0,1,86.67,73.07Z" transform="translate(-9.84 -55.28)"/><path class="cls-3" d="M60.11,79.22A9,9,0,0,1,63.42,75c1-.65,2-1.21,3.09-.57a3,3,0,0,1,1.41,2.87A7,7,0,0,1,64,83.37v-3.9c0-.9.13-2-1.21-2s-1.46,1.08-1.47,2.13,0,2.07-.07,3.11a.57.57,0,0,0,0,.13c.52,2,.84,4,1.52,5.92.56,1.59,1.23,3.45,3.38,3.45,2.8,0,4.4-2,5.56-4.22.89-1.63,1.37-3.86-.41-5-2.15-1.39-1.71-2.8-1.15-4.64a4.77,4.77,0,0,0-1.58-5.52c-1.79-1.4-3.69-.77-5.46.16a11.5,11.5,0,0,0-4.58,4C57.32,78.91,58,79.62,60.11,79.22ZM70,86.34c-.51,1.74-.88,3.92-3.11,3.89-2,0-2.22-2.26-2.29-3.71-.1-1.86,1.49-2.81,3.18-2.92S69.81,85,70,86.34Z" transform="translate(-9.84 -55.28)"/><path class="cls-3" d="M117.4,81.34a8,8,0,0,0,5-2.73,7,7,0,0,0,2-7.29c-.88-2.61-3.4-1.44-5.4-1.44.94-2.14,1.84-4.07,2.63-6.06a1.23,1.23,0,0,0,.12-.26,1.6,1.6,0,0,0-1-2c-1.08-.31-1.24.78-1.56,1.49-1.06,2.43-2.09,4.87-3.18,7.28a36.53,36.53,0,0,0-2.73,6.17C112.46,79.71,114.1,81.64,117.4,81.34Zm-1.91-4.22A13.51,13.51,0,0,1,120,71.83c.48-.35,1-.71,1.65-.19A1.31,1.31,0,0,1,122,73c-.61,2.5-1.4,4.91-3.92,6.22-.81.42-1.66,1-2.51.17S115.17,77.83,115.49,77.12Z" transform="translate(-9.84 -55.28)"/><path class="cls-3" d="M33.75,196.1a2.84,2.84,0,0,1,1.91-.81c1.34-.17,2.72-.4,4-.59.34-1.37-.89-1.7-1.17-2.62-1.12-2.89-5.43-4-7.94-2.12-1.6,1.24-1.93,2.67-.09,4,.57.42,1.71.23,1.26,1.56-.38,1.15.33,1.83,1.33,2C34.54,197.8,33.35,196.53,33.75,196.1Zm-2.61-3.47c0-1.5,1.84-1.58,3.13-1.63s3-.1,2.88,1.34c-.1,1.73-2.15.74-3.22,1.34C32.93,193.27,31.12,193.94,31.14,192.63Z" transform="translate(-9.84 -55.28)"/><path class="cls-3" d="M150.64,220.34c-3.44-.71-2-3.55-2.63-5.45-.17-.56-.36-.85-1-.74a5.94,5.94,0,0,0-4.6,6,4.52,4.52,0,0,0,.75,3c.9,1.42,2.26,2.08,3.48.68.91-1,1.26-2.18,3-1.84C150.15,222.13,151.18,220.45,150.64,220.34Zm-4.88,2.25c-1.55,0-1.52-1.87-1.56-3.13s-.21-2.91,1.33-2.85.95,1.9,1.23,3C146.46,220.67,147.31,222.59,145.76,222.59Z" transform="translate(-9.84 -55.28)"/><path class="cls-3" d="M166.93,198c-.4-.55-.91-1.83-1.4-1-1,1.73-3.89,2.4-2.89,5a5.35,5.35,0,0,0,1.07,3.9c.67.94,1.48,1.78,2.75,1.64l.28,0a2,2,0,0,0,1.58-2.35c-.11-1.4.86-1,1.58-1.16a1.19,1.19,0,0,0,1.07-1.28,1.71,1.71,0,0,0-.43-1C167.39,202.34,168,199.35,166.93,198Zm.06,7.47c-1.06.54-1.6-.53-2.09-1.28a5,5,0,0,1-1-3.45,1.25,1.25,0,0,1,1-1.16c1.52.7,1.72,2.28,2.18,3.69C167.33,204,167.88,205,167,205.47Z" transform="translate(-9.84 -55.28)"/><path class="cls-3" d="M30.88,187.39c1.21-1.29,2-1.06,3.21-.44a3.12,3.12,0,0,0,3.67-.52c1-.93.86-2.13.53-3.37A9.62,9.62,0,0,0,36,179.18a1.26,1.26,0,0,0-1.61-.43c-1.07.56,0,1.17,0,1.77a4,4,0,0,1,1,.5c1.08,1,2.59,2.18,1.34,3.72s-2.76.65-4-.3A18.76,18.76,0,0,1,31.17,183c.61-1.07,1.55-.44,2.35-.44,2,0,1.95-.79.87-2h0c-2.62-.14-5.25-.38-7.78.62-1,.39-1.9,1-1.81,2.14.06.94.21,2,1.57,2.07.05-1-.64-2.13.88-2.74s2.5,0,3.37,1.12c.07,4.15-2.57,1.54-4.11,1.7C27.39,187.77,29.5,188.85,30.88,187.39Z" transform="translate(-9.84 -55.28)"/><path class="cls-3" d="M69.79,220.35c-2.63-.11-5.66,2.33-5.73,4.52s1.61,2.55,3.13,2.91c2.64,0,5.81-2.58,5.67-4.76C72.79,221.13,71.51,220.43,69.79,220.35Zm-3.33,6.16c-.64-.13-.77-.53-.71-1.1.14-1.33,3.17-3.82,4.5-3.7.56,0,1,.15.88.8C71.13,223.86,67.68,226.72,66.46,226.51Z" transform="translate(-9.84 -55.28)"/><path class="cls-3" d="M83.61,225.48A6.28,6.28,0,0,0,79.2,229c-.67,1.44-.67,2.78.79,3.78l0,0a3.26,3.26,0,0,0,4.54-.82c-1.25-.55-3.19,1.15-3.93-1.55,1.55-.35,2.88.15,4.33-.51a2.47,2.47,0,0,0,1.64-3.16C86.19,225.3,84.86,225.18,83.61,225.48Zm1.44,2a3.18,3.18,0,0,1-3.25,1.42c.71-1.14,1.28-2.44,2.88-2.17C84.85,226.75,85.13,227.37,85.05,227.5Z" transform="translate(-9.84 -55.28)"/><path class="cls-3" d="M124.62,231c-.84-1.07,1.5-1,1.85-2,1.58-.88,2.43-2.17,1.44-3.92-.82-1.44-2-1.3-3.22-.34l-.06,0a5.65,5.65,0,0,0-2.51,5.48c.11,1.8,1,3,2.89,2.8,1.65-.13,3.4-.6,3.4-3C126.9,230.22,125.88,232.67,124.62,231Zm-.31-2c-.58-.35-.33-1.06-.1-1.58.3-.72.72-1.38,1.09-2.07,2.28.62.84,1.91.53,3C125.32,228.61,124.89,229.36,124.31,229Z" transform="translate(-9.84 -55.28)"/><path class="cls-4" d="M21.42,163c-.24-.68-.51-1.41-1.42-1.4h-.13A1.27,1.27,0,0,0,18.74,163v0a1.36,1.36,0,0,0,1.37,1.35C21,164.45,21.26,163.72,21.42,163Z" transform="translate(-9.84 -55.28)"/><path class="cls-4" d="M187.1,168.66c-.88-.16-1.26.42-1.38,1.2s.16,1.37,1.05,1.46h.07a1.27,1.27,0,0,0,1.41-1.11C188.19,169.45,188,168.82,187.1,168.66Z" transform="translate(-9.84 -55.28)"/><path class="cls-4" d="M185.34,173.26a1.36,1.36,0,0,0-1.16,1.5.88.88,0,0,0,0,.28,1.15,1.15,0,0,0,1.35.93c.77-.06,1.2-.61,1.13-1.55C186.53,173.78,186.17,173.16,185.34,173.26Z" transform="translate(-9.84 -55.28)"/><path class="cls-4" d="M22.17,167.47c-.17-.47-.41-1.14-1.33-1a1,1,0,0,0-.24,0,1.23,1.23,0,0,0-.91,1.47.19.19,0,0,0,0,.08,1.29,1.29,0,0,0,1.54,1C22,169,22.24,168.47,22.17,167.47Z" transform="translate(-9.84 -55.28)"/><path class="cls-4" d="M188,163.91c-.9.12-1,.88-1,1.6a1,1,0,0,0,0,.17,1,1,0,0,0,1.23.83,1.27,1.27,0,0,0,1.28-1.46C189.25,164.41,188.88,163.79,188,163.91Z" transform="translate(-9.84 -55.28)"/><path class="cls-4" d="M22.35,171.31a1.33,1.33,0,0,0-.28,0,1.16,1.16,0,0,0-1.14,1.18c-.06.84.49,1.23,1.33,1.38h.08a1,1,0,0,0,1-1C23.43,172.11,23.23,171.41,22.35,171.31Z" transform="translate(-9.84 -55.28)"/><path class="cls-4" d="M141.91,170c-1.33,0-2.07.57-2.07,2a1.13,1.13,0,0,0,0,.26,2,2,0,0,0,2.12,1.87c1.39,0,1.76-1.11,1.76-2.34S143.24,170,141.91,170Z" transform="translate(-9.84 -55.28)"/><path class="cls-4" d="M109.42,140.11c-1.64.35-1.7.35-1.9-.65,5.63-5.79,10.93-11.84,14.28-19.31,1.23-2.74,2.1-5.58,1.35-8.58a4.91,4.91,0,0,0-.25-.93,4.85,4.85,0,0,0-6.25-2.79,16.83,16.83,0,0,0-6.05,3.46c-6.4,5.27-10.47,12.18-14,19.46-4.1,8.41-6.66,17.48-9.47,26.41a1.7,1.7,0,0,0-.47.71,1.36,1.36,0,0,1-.17-1.41c.24-2.54.34-5.1.74-7.61C89.41,135,93,121.51,100.75,109.53c.38-.58,1.12-1.17.32-1.84s-1.56,0-2.15.51a22.69,22.69,0,0,0-4.41,6.22A103.31,103.31,0,0,0,82.91,160c-.1,3.57-.78,5.52-4.5,6a10.21,10.21,0,0,0-3.78,1.79c-6.74,4.42-6.9,12.6-.35,17.3a29.68,29.68,0,0,0,16,5.42c15.32.85,27.86-4.52,35.86-17.83C135.17,157.6,125.23,138.72,109.42,140.11Zm11.47,33.68c-6.89,8.31-17.83,13.4-30,13.4a28.61,28.61,0,0,1-14.06-3.88c-2.71-1.66-5.1-3.77-4.88-7.23s2.7-5.35,5.5-6.85a23.08,23.08,0,0,1,2.54-1c1.86-.84,3.1-.81,3,1.79a7.13,7.13,0,0,0,.59,2.35,1.41,1.41,0,0,0,1.46.89,1.26,1.26,0,0,0,1.27-1.09,7.53,7.53,0,0,0,.36-1.49c.14-3,1.64-4.24,4.68-3.77.88.13,2.45.56,2.62-.73s-1.48-1.48-2.33-1.42c-3.51.26-3.29-1.36-2.65-4,2.73-11.45,6.12-22.64,11.6-33.12,3.06-5.84,6.76-11.19,12.06-15.25a23.66,23.66,0,0,1,3.13-1.89,3.27,3.27,0,0,1,3.74.18c1.34,1,1.09,2.41.74,3.66a38.42,38.42,0,0,1-8.3,14.85c-3.34,3.85-7,7.46-10.49,11.16-.84.89-2.07,1.77-1.26,3.09s2.08.37,3.13.28A18.1,18.1,0,0,0,106,143c10.51-2.43,18.2,2.79,19.89,13.42C126.94,163,125.05,168.75,120.89,173.79Z" transform="translate(-9.84 -55.28)"/></svg>