<svg id="Calque_1" data-name="Calque 1" xmlns="http://www.w3.org/2000/svg" viewBox="0 0 560.1 775.4"><defs><style>.cls-1{fill:#de0932;}</style></defs><path class="cls-1" d="M1491.92,1333.45c-15.28,3.26-15.84,3.26-17.71-6.06,52.48-54,101.87-110.34,133.09-180,11.47-25.54,19.57-52,12.58-80a45.09,45.09,0,0,0-60.57-34.67,156.86,156.86,0,0,0-56.39,32.25c-59.65,49.11-97.58,113.51-130.48,181.36-38.21,78.38-62.07,162.92-88.26,246.14a15.9,15.9,0,0,0-4.38,6.62,12.67,12.67,0,0,1-1.58-13.14c2.23-23.67,3.17-47.53,6.89-70.93,20.32-129.26,53.78-255,126-366.64,3.54-5.41,10.44-10.91,3-17.15s-14.54-.47-20,4.75a210.27,210.27,0,0,0-41.1,58,963.89,963.89,0,0,0-108.11,424.8c-.93,33.28-7.27,51.45-41.94,55.92a94.23,94.23,0,0,0-35.23,16.69c-62.81,41.19-64.3,117.43-3.26,161.23a277.17,277.17,0,0,0,149.12,50.51c142.78,7.93,259.65-42.12,334.21-166.17C1731.91,1496.46,1639.27,1320.5,1491.92,1333.45Zm106.9,313.9c-64.21,77.44-166.17,124.88-279.88,124.88a266.76,266.76,0,0,1-131-36.16c-25.26-15.47-47.53-35.13-45.48-67.38s25.16-49.86,51.26-63.84c7.45-4,15.84-6.25,23.67-9.32,17.33-7.83,28.89-7.55,28,16.68a68,68,0,0,0,5.5,21.9,13,13,0,0,0,13.6,8.3c6.81,0,10.16-4.2,11.84-10.16a67.66,67.66,0,0,0,3.36-13.89c1.3-28,15.28-39.52,43.61-35.14,8.2,1.22,22.84,5.22,24.42-6.8s-13.79-13.79-21.72-13.23c-32.71,2.42-30.66-12.68-24.69-37.28,25.44-106.72,57-211,108.11-308.68,28.52-54.43,63-104.29,112.4-142.13a214.84,214.84,0,0,1,29.17-17.61,30.45,30.45,0,0,1,34.85,1.68c12.49,9.32,10.16,22.46,6.9,34.11a358.45,358.45,0,0,1-77.35,138.4c-31.13,35.88-65.24,69.53-97.77,104-7.83,8.29-19.29,16.49-11.74,28.8s19.38,3.45,29.17,2.61a168.22,168.22,0,0,0,25.07-6.71c98-22.65,169.62,26,185.37,125.07C1655.21,1546.88,1637.59,1600.37,1598.82,1647.35Z" transform="translate(-1119.59 -1028.58)"/></svg>